# xmcd CD database file
#
# Track frame offsets:
#	150
#	29705
#	88269
#	142815
#	158575
#	208580
#	241137
#	282379
#	317530
#
# Disc length: 4535 seconds
#
# Revision: 0
# Processed by: cddbd v1.5.2PL0 Copyright (c) Steve Scherf et al.
# Submitted via: CDex 1.70beta2
#
DISCID=7711b509
DTITLE=Diverse - CUE 139
DYEAR=2006
DGENRE=New Age
TTITLE0=Transceive - Delusions
TTITLE1=Redshift - Glide
TTITLE2=Redshift - Iron Heart
TTITLE3=Jim Cole and Mathias Grassow - Flare
TTITLE4=Jeremy - Meadows
TTITLE5=Ebia - Supernova
TTITLE6=Aural Float - Perspectives
TTITLE7=Ramp - Scissord
TTITLE8=Alio Die and Werner Durand - Ghost
EXTD=YEAR: 2006
EXTT0=
EXTT1=
EXTT2=
EXTT3=
EXTT4=
EXTT5=
EXTT6=
EXTT7=
EXTT8=
PLAYORDER=
